<svg width="35" height="41" viewBox="0 0 35 41" fill="none" xmlns="http://www.w3.org/2000/svg">
<path d="M32.1543 4.59518L9.09148 0.487952C8.35163 0.356647 7.59036 0.527068 6.97508 0.961739C6.3598 1.39641 5.94089 2.05974 5.81046 2.80586L0.542766 32.985C0.478337 33.3548 0.486778 33.7337 0.567605 34.1001C0.648433 34.4665 0.800063 34.8133 1.01383 35.1206C1.2276 35.4279 1.49931 35.6897 1.81345 35.891C2.12758 36.0924 2.47798 36.2293 2.84462 36.294L25.9074 40.4013C26.2741 40.4665 26.65 40.4582 27.0135 40.3768C27.377 40.2954 27.7211 40.1425 28.026 39.9269C28.3309 39.7113 28.5907 39.4372 28.7904 39.1202C28.9902 38.8033 29.126 38.4497 29.1902 38.0798L34.4579 7.9006C34.5869 7.1542 34.4167 6.38667 33.9847 5.76681C33.5527 5.14694 32.8943 4.7255 32.1543 4.59518ZM18.8248 21.0794C18.767 21.4099 18.5956 21.7093 18.3408 21.9252C18.086 22.141 17.764 22.2595 17.4313 22.2598C17.3482 22.2598 17.2653 22.2526 17.1834 22.2384L9.83516 20.9294C9.48594 20.8428 9.18246 20.6255 8.98628 20.3215C8.7901 20.0175 8.71591 19.6497 8.77876 19.2925C8.84161 18.9354 9.03678 18.6158 9.3247 18.3985C9.61262 18.1811 9.97172 18.0824 10.3292 18.1222L17.6738 19.4241C17.8573 19.4564 18.0325 19.5249 18.1897 19.6256C18.3468 19.7264 18.4827 19.8574 18.5896 20.0111C18.6965 20.1649 18.7723 20.3384 18.8126 20.5217C18.853 20.705 18.8571 20.8945 18.8248 21.0794ZM27.1468 16.7615C27.0891 17.0917 26.918 17.3909 26.6636 17.6066C26.4091 17.8224 26.0876 17.9411 25.7551 17.9419C25.6714 17.942 25.5878 17.9342 25.5054 17.9187L10.809 15.3025C10.439 15.2365 10.1101 15.0249 9.89476 14.7142C9.67941 14.4036 9.59524 14.0195 9.66075 13.6463C9.72626 13.2731 9.93609 12.9414 10.2441 12.7242C10.5521 12.507 10.933 12.4221 11.303 12.4882L25.9995 15.1061C26.183 15.1383 26.3585 15.2066 26.5158 15.3073C26.6732 15.4079 26.8093 15.5388 26.9163 15.6926C27.0234 15.8464 27.0994 16.02 27.1398 16.2034C27.1803 16.3868 27.1845 16.5764 27.1522 16.7615H27.1468ZM28.1296 11.1328C28.0717 11.4633 27.9004 11.7627 27.6456 11.9785C27.3908 12.1944 27.0688 12.3128 26.7361 12.3132C26.653 12.313 26.5701 12.3059 26.4882 12.2918L11.7917 9.67385C11.6043 9.64604 11.4243 9.58059 11.2625 9.48139C11.1006 9.3822 10.9601 9.25126 10.8492 9.09633C10.7384 8.9414 10.6595 8.76562 10.6172 8.5794C10.5749 8.39318 10.5701 8.20029 10.603 8.01216C10.636 7.82402 10.706 7.64446 10.8089 7.48409C10.9119 7.32372 11.0456 7.18581 11.2024 7.07851C11.3591 6.9712 11.5356 6.89669 11.7214 6.85938C11.9071 6.82208 12.0984 6.82273 12.284 6.8613L26.9804 9.47742C27.1641 9.50936 27.3398 9.57756 27.4973 9.67812C27.6549 9.77867 27.7912 9.9096 27.8984 10.0634C28.0057 10.2172 28.0818 10.3908 28.1223 10.5743C28.1629 10.7578 28.1672 10.9476 28.1349 11.1328H28.1296Z" fill="#735465"/>
</svg>
