<svg width="41" height="30" viewBox="0 0 41 30" fill="none" xmlns="http://www.w3.org/2000/svg">
<path d="M39.4269 14.51C37.6593 6.61113 34.9991 2.39521 31.0531 1.24362C30.2236 1.00309 29.3632 0.882942 28.4987 0.886937C27.3562 0.886937 26.3611 1.16207 25.3086 1.45367C24.0402 1.80541 22.5992 2.20493 20.4983 2.20493C18.3973 2.20493 16.9556 1.80624 15.6847 1.4545C14.6313 1.16207 13.6371 0.886937 12.4978 0.886937C11.604 0.883831 10.714 1.0036 9.85351 1.24279C5.92828 2.38945 3.26979 6.60372 1.47636 14.5051C-0.452088 23.0078 0.497133 28.3761 4.13818 29.6216C4.63726 29.7955 5.1624 29.8852 5.6916 29.8868C8.18591 29.8868 10.186 27.8332 11.5528 26.152C13.097 24.2491 14.9046 23.2837 20.4983 23.2837C25.4944 23.2837 27.562 23.9534 29.348 26.152C30.4705 27.5342 31.5314 28.5013 32.5898 29.1101C33.9974 29.919 35.4041 30.0985 36.7701 29.6348C38.9218 28.9091 40.1552 26.9906 40.4369 23.9312C40.6511 21.5851 40.3211 18.5035 39.4269 14.51ZM16.4981 14.0668H13.8312V16.7028C13.8312 17.0524 13.6907 17.3876 13.4407 17.6348C13.1906 17.882 12.8515 18.0208 12.4978 18.0208C12.1442 18.0208 11.805 17.882 11.555 17.6348C11.3049 17.3876 11.1644 17.0524 11.1644 16.7028V14.0668H8.49759C8.14395 14.0668 7.80479 13.928 7.55473 13.6808C7.30467 13.4336 7.16418 13.0984 7.16418 12.7488C7.16418 12.3993 7.30467 12.0641 7.55473 11.8169C7.80479 11.5697 8.14395 11.4309 8.49759 11.4309H11.1644V8.79488C11.1644 8.44533 11.3049 8.11009 11.555 7.86292C11.805 7.61575 12.1442 7.47689 12.4978 7.47689C12.8515 7.47689 13.1906 7.61575 13.4407 7.86292C13.6907 8.11009 13.8312 8.44533 13.8312 8.79488V11.4309H16.4981C16.8517 11.4309 17.1909 11.5697 17.4409 11.8169C17.691 12.0641 17.8315 12.3993 17.8315 12.7488C17.8315 13.0984 17.691 13.4336 17.4409 13.6808C17.1909 13.928 16.8517 14.0668 16.4981 14.0668ZM23.4985 14.3963C23.1688 14.3963 22.8465 14.2997 22.5725 14.1187C22.2984 13.9377 22.0847 13.6804 21.9586 13.3793C21.8324 13.0783 21.7994 12.747 21.8637 12.4274C21.928 12.1079 22.0868 11.8143 22.3199 11.5839C22.553 11.3535 22.85 11.1966 23.1733 11.133C23.4966 11.0694 23.8317 11.1021 24.1363 11.2268C24.4409 11.3515 24.7012 11.5626 24.8843 11.8336C25.0675 12.1045 25.1652 12.423 25.1652 12.7488C25.1652 13.1858 24.9896 13.6048 24.677 13.9138C24.3645 14.2228 23.9405 14.3963 23.4985 14.3963ZM27.1653 18.0208C26.8355 18.0208 26.5131 17.9241 26.2389 17.7429C25.9647 17.5617 25.7511 17.3041 25.6251 17.0028C25.499 16.7016 25.4663 16.3701 25.5309 16.0504C25.5956 15.7307 25.7547 15.4372 25.9882 15.2069C26.2218 14.9767 26.5191 14.8201 26.8427 14.757C27.1663 14.6939 27.5016 14.7271 27.8061 14.8524C28.1106 14.9778 28.3706 15.1896 28.5532 15.461C28.7359 15.7325 28.8329 16.0514 28.8321 16.3774C28.831 16.8137 28.6549 17.2317 28.3424 17.5397C28.03 17.8478 27.6067 18.0208 27.1653 18.0208ZM27.1653 10.7719C26.8357 10.7719 26.5134 10.6752 26.2393 10.4942C25.9652 10.3132 25.7516 10.0559 25.6254 9.75484C25.4993 9.4538 25.4663 9.12255 25.5306 8.80297C25.5949 8.48339 25.7537 8.18983 25.9868 7.95943C26.2199 7.72902 26.5168 7.57211 26.8402 7.50854C27.1635 7.44498 27.4986 7.4776 27.8032 7.6023C28.1077 7.72699 28.3681 7.93815 28.5512 8.20908C28.7343 8.48001 28.8321 8.79853 28.8321 9.12438C28.8321 9.56132 28.6565 9.98036 28.3439 10.2893C28.0313 10.5983 27.6074 10.7719 27.1653 10.7719ZM30.8322 14.3963C30.5026 14.3963 30.1803 14.2997 29.9062 14.1187C29.6321 13.9377 29.4185 13.6804 29.2923 13.3793C29.1662 13.0783 29.1332 12.747 29.1975 12.4274C29.2618 12.1079 29.4205 11.8143 29.6536 11.5839C29.8867 11.3535 30.1837 11.1966 30.507 11.133C30.8304 11.0694 31.1655 11.1021 31.4701 11.2268C31.7746 11.3515 32.0349 11.5626 32.2181 11.8336C32.4012 12.1045 32.499 12.423 32.499 12.7488C32.499 13.1858 32.3234 13.6048 32.0108 13.9138C31.6982 14.2228 31.2743 14.3963 30.8322 14.3963Z" fill="#735465"/>
</svg>
